<svg xmlns="http://www.w3.org/2000/svg" viewBox="0 0 1000 1000">
  <path d="M549.9 988.3h-.1c-16.2 1-32.6 1.7-49.4 1.7h-.4c-220.5 0-399.2-91.9-399.2-199.6 0-43.2 29-78.4 77.8-110.7L211 711c-38.7 23.9-65.8 48.2-65.8 79.5 0 75.2 135.1 141.8 305.3 152.1 16.2 1 32.7 1.7 49.6 1.7 17 0 33.5-.7 49.8-1.7C720 932.3 855 865.7 855 790.6c0-31.1-27-55.3-65.4-79.2l32.4-31.3c48.5 32.2 77.3 67.4 77.3 110.5-.1 99.2-152.5 185.7-349.4 197.7z"/>
  <path d="M812.1 313.9C812.1 146.3 672.1 10 500 10c-172 0-312.1 136.3-312.1 303.9 0 34.2 5.8 67.8 17.3 99.7C258.7 566 490.7 794.9 500 804l28.5-29.2s101.2-109.9 108-118l8.7-10.2C723 553.3 773.4 475 794.9 413.8l8.2-27.2c6-23.7 9-48 9-72.7zM501.9 435.3c-73.3 0-132.9-59.6-132.9-132.9 0-73.3 59.5-132.9 132.9-132.9 73.3 0 132.9 59.6 132.9 132.9-.1 73.3-59.7 132.9-132.9 132.9z"/>
</svg>
